<svg width="100" height="100" viewBox="0 0 100 100" fill="none" xmlns="http://www.w3.org/2000/svg">
<path d="M69.9251 46.8301L69.4668 49.0967C69.3725 49.5631 68.9626 49.8985 68.4867 49.8985L65.6315 49.8985C65.1556 49.8985 64.7456 49.5631 64.6513 49.0967L64.1931 46.8301C64.1151 46.4443 63.817 46.1434 63.4379 46.0378C62.3794 45.7432 61.3735 45.3226 60.4372 44.7932C60.094 44.5991 59.6696 44.6014 59.3414 44.8199L57.4197 46.0994C57.0231 46.3635 56.4953 46.311 56.1584 45.9741L54.1412 43.9569C53.8043 43.62 53.7519 43.0923 54.0159 42.6957L55.2953 40.7737C55.5138 40.4455 55.516 40.0212 55.322 39.678C54.7926 38.7417 54.372 37.7358 54.0774 36.6775C53.9719 36.2983 53.671 36.0003 53.2852 35.9223L51.0186 35.464C50.5521 35.3697 50.2168 34.9597 50.2168 34.4838L50.2168 31.6286C50.2168 31.1527 50.5521 30.7428 51.0186 30.6485L53.2852 30.1901C53.671 30.1121 53.9719 29.8141 54.0774 29.4349C54.3716 28.378 54.7915 27.3734 55.3198 26.4382C55.5134 26.0955 55.5113 25.672 55.2937 25.344L54.0143 23.4164C53.7511 23.0199 53.8038 22.4928 54.1403 22.1563L56.1592 20.1374C56.4957 19.8009 57.0228 19.7482 57.4193 20.0113L59.347 21.2907C59.675 21.5084 60.0985 21.5104 60.4412 21.3168C61.3763 20.7885 62.3809 20.3687 63.4378 20.0745C63.817 19.969 64.115 19.6681 64.193 19.2823L64.6513 17.0157C64.7456 16.5493 65.1556 16.2139 65.6315 16.2139L68.4867 16.2139C68.9626 16.2139 69.3725 16.5493 69.4668 17.0157L69.9251 19.2823C70.0031 19.6681 70.3011 19.969 70.6803 20.0745C71.7387 20.3691 72.7446 20.7897 73.6809 21.3191C74.0241 21.5131 74.4484 21.5108 74.7766 21.2923L76.6985 20.0129C77.0951 19.7489 77.6229 19.8013 77.9598 20.1382L79.977 22.1554C80.3139 22.4923 80.3663 23.0201 80.1023 23.4167L78.8228 25.3385C78.6043 25.6667 78.6021 26.091 78.7961 26.4342C79.3255 27.3705 79.7461 28.3765 80.0407 29.4349C80.1463 29.814 80.4471 30.1121 80.8329 30.1901L83.0996 30.6485C83.566 30.7428 83.9013 31.1527 83.9013 31.6286L83.9013 34.4838C83.9013 34.9597 83.566 35.3697 83.0995 35.464L80.8329 35.9223C80.4472 36.0003 80.1463 36.2983 80.0407 36.6775C79.7465 37.7344 79.3267 38.7389 78.7984 39.6741C78.6048 40.0168 78.6069 40.4403 78.8245 40.7682L80.1039 42.696C80.3671 43.0925 80.3144 43.6195 79.9778 43.9561L77.959 45.9749C77.6225 46.3114 77.0954 46.3642 76.6989 46.101L74.7713 44.8216C74.4433 44.6039 74.0198 44.6018 73.6771 44.7955C72.7419 45.3238 71.7373 45.7436 70.6803 46.0379C70.3011 46.1434 70.0031 46.4443 69.9251 46.8301Z" stroke="#272727" stroke-width="2"/>
<path d="M34.5144 80.2646L32.4985 83.2246C32.2306 83.6179 31.7226 83.768 31.284 83.5834L27.2619 81.8904C26.8233 81.7058 26.5755 81.2376 26.6696 80.7711L27.3773 77.2604C27.455 76.8746 27.2976 76.481 26.9862 76.2404C25.7067 75.252 24.5837 74.1071 23.6334 72.8457C23.3961 72.5308 23.0035 72.3689 22.6162 72.4429L19.1027 73.115C18.6348 73.2045 18.1686 72.9514 17.9888 72.5102L16.3428 68.4713C16.163 68.0301 16.3194 67.5233 16.7165 67.2602L19.6989 65.2845C20.0276 65.0668 20.1951 64.6765 20.1447 64.2855C19.9426 62.7192 19.9455 61.1156 20.1696 59.5146C20.2242 59.1248 20.0616 58.7333 19.7363 58.5118L16.7763 56.4958C16.383 56.2279 16.2329 55.72 16.4175 55.2813L18.1105 51.2592C18.2951 50.8206 18.7633 50.5728 19.2298 50.6668L22.7406 51.3744C23.1264 51.4521 23.52 51.2948 23.7606 50.9833C24.7476 49.7056 25.8906 48.5839 27.15 47.6344C27.4643 47.3974 27.6261 47.0056 27.5527 46.6189L26.8846 43.0989C26.7959 42.6314 27.049 42.166 27.4897 41.9864L31.5308 40.3395C31.9715 40.1599 32.4778 40.3157 32.7411 40.7121L34.724 43.6964C34.9418 44.0242 35.3314 44.1912 35.7218 44.141C37.286 43.9398 38.8875 43.9431 40.4864 44.1669C40.8762 44.2215 41.2677 44.0589 41.4892 43.7336L43.5052 40.7736C43.7731 40.3802 44.281 40.2302 44.7197 40.4148L48.7418 42.1078C49.1804 42.2924 49.4281 42.7605 49.3341 43.227L48.6264 46.7377C48.5487 47.1236 48.706 47.5172 49.0175 47.7578C50.2969 48.7461 51.4199 49.8909 52.3703 51.1522C52.6075 51.4671 53.0001 51.629 53.3874 51.555L56.9011 50.8831C57.369 50.7936 57.8351 51.0467 58.0149 51.4879L59.661 55.5268C59.8408 55.968 59.6843 56.4748 59.2871 56.7379L56.3048 58.7134C55.9761 58.9311 55.8085 59.3214 55.859 59.7124C56.0611 61.2787 56.0582 62.8824 55.834 64.4835C55.7795 64.8733 55.942 65.2648 56.2673 65.4863L59.2273 67.5025C59.6206 67.7704 59.7707 68.2783 59.5861 68.7169L57.8931 72.7391C57.7085 73.1777 57.2403 73.4254 56.7738 73.3314L53.2631 72.6237C52.8773 72.546 52.4837 72.7034 52.2431 73.0148C51.2561 74.2925 50.1131 75.4141 48.8539 76.3636C48.5396 76.6006 48.3777 76.9924 48.4511 77.3791L49.1191 80.8992C49.2078 81.3668 48.9547 81.8321 48.514 82.0117L44.4729 83.6586C44.0322 83.8383 43.5259 83.6824 43.2626 83.286L41.2799 80.3018C41.0621 79.9739 40.6725 79.8068 40.2821 79.8571C38.7177 80.0583 37.1162 80.0551 35.5173 79.8313C35.1275 79.7767 34.736 79.9393 34.5144 80.2646Z" stroke="#272727" stroke-width="2"/>
</svg>
