<svg width="100" height="100" viewBox="0 0 100 100" fill="none" xmlns="http://www.w3.org/2000/svg">
<circle cx="50.0015" cy="50" r="27" stroke="#272727" stroke-width="2"/>
<circle cx="50.0015" cy="50" r="3" stroke="#272727" stroke-width="2"/>
<path d="M65.7086 35.7071C66.0991 35.3166 66.0991 34.6834 65.7086 34.2929C65.318 33.9024 64.6849 33.9024 64.2944 34.2929L65.7086 35.7071ZM52.7086 48.7071L65.7086 35.7071L64.2944 34.2929L51.2944 47.2929L52.7086 48.7071Z" fill="#272727"/>
<path d="M36.5044 45.2811C35.971 45.1382 35.4226 45.4548 35.2797 45.9883C35.1367 46.5217 35.4533 47.0701 35.9868 47.213L36.5044 45.2811ZM47.0087 48.0958L36.5044 45.2811L35.9868 47.213L46.4911 50.0276L47.0087 48.0958Z" fill="#272727"/>
<path d="M46.5015 19H44.5015C43.673 19 43.0015 18.3284 43.0015 17.5V17.5C43.0015 16.6716 43.673 16 44.5015 16H55.5015C56.3299 16 57.0015 16.6716 57.0015 17.5V17.5C57.0015 18.3284 56.3299 19 55.5015 19H53.5015M46.5015 19V23M46.5015 19H53.5015M53.5015 19V23" stroke="#272727" stroke-width="2"/>
</svg>
