<svg width="100" height="100" viewBox="0 0 100 100" fill="none" xmlns="http://www.w3.org/2000/svg">
<path d="M32.001 74C22.6121 74 15.001 66.3888 15.001 57C15.001 47.6112 22.6121 40 32.001 40C36.1748 40 39.9973 41.5042 42.956 44M32.001 74H51.501M32.001 74C37.1948 74 41.8446 71.6708 44.9629 68M32.001 49C28.7918 49 27.001 50.7909 27.001 53C27.001 55.2091 30.001 56.5 32.001 57C34.001 57.5 37.001 58.7909 37.001 61C37.001 63.2091 35.2101 65 32.001 65M32.001 49C35.2101 49 37.001 50.7909 37.001 53M32.001 49V46.5M32.001 65C28.7918 65 27.001 63.2091 27.001 61M32.001 65V67.5M57.001 74H83.001M57.001 68H83.001M83.001 62H57.001M57.001 56H83.001M57.001 50H83.001M83.001 44H57.001M83.001 38H57.001M51.501 68H44.9629M44.9629 68C46.4368 66.265 47.5685 64.2302 48.2538 62M51.501 62H48.2538M48.2538 62C48.7395 60.4192 49.001 58.7401 49.001 57C49.001 56.6643 48.9912 56.3309 48.9721 56M51.501 56H48.9721M48.9721 56C48.8486 53.8712 48.3334 51.8476 47.4975 50M51.501 50H47.4975M47.4975 50C46.4449 47.6735 44.8838 45.6262 42.956 44M51.501 44H42.956M83.001 32H57.001M83.001 26H57.001" stroke="#272727" stroke-width="2"/>
</svg>
