<svg width="100" height="100" viewBox="0 0 100 100" fill="none" xmlns="http://www.w3.org/2000/svg">
<circle cx="48.0005" cy="41" r="2" fill="#272727"/>
<circle cx="57.0005" cy="41" r="2" fill="#272727"/>
<circle cx="66.0005" cy="41" r="2" fill="#272727"/>
<path d="M76.0005 60V59C75.4482 59 75.0005 59.4477 75.0005 60H76.0005ZM76.0005 70L75.3108 70.7241C75.6005 71 76.0267 71.0767 76.3944 70.9191C76.7621 70.7616 77.0005 70.4 77.0005 70H76.0005ZM65.5005 60L66.1901 59.2759C66.0042 59.0988 65.7573 59 65.5005 59V60ZM33.0005 24H81.0005V22H33.0005V24ZM84.0005 27V56H86.0005V27H84.0005ZM30.0005 56V27H28.0005V56H30.0005ZM81.0005 59H76.0005V61H81.0005V59ZM75.0005 60V70H77.0005V60H75.0005ZM65.5005 59H33.0005V61H65.5005V59ZM76.6901 69.2759L66.1901 59.2759L64.8108 60.7241L75.3108 70.7241L76.6901 69.2759ZM28.0005 56C28.0005 58.7614 30.2391 61 33.0005 61V59C31.3436 59 30.0005 57.6569 30.0005 56H28.0005ZM84.0005 56C84.0005 57.6569 82.6573 59 81.0005 59V61C83.7619 61 86.0005 58.7614 86.0005 56H84.0005ZM81.0005 24C82.6573 24 84.0005 25.3431 84.0005 27H86.0005C86.0005 24.2386 83.7619 22 81.0005 22V24ZM33.0005 22C30.2391 22 28.0005 24.2386 28.0005 27H30.0005C30.0005 25.3431 31.3436 24 33.0005 24V22Z" fill="#272727"/>
<path d="M24.0005 69V68C24.5528 68 25.0005 68.4477 25.0005 69H24.0005ZM24.0005 79L24.6901 79.7241C24.4005 80 23.9743 80.0767 23.6066 79.9191C23.2389 79.7616 23.0005 79.4 23.0005 79H24.0005ZM34.5005 69L33.8108 68.2759C33.9968 68.0988 34.2437 68 34.5005 68V69ZM23.0005 31C23.5528 31 24.0005 31.4477 24.0005 32C24.0005 32.5523 23.5528 33 23.0005 33V31ZM64.0005 68C64.5528 68 65.0005 68.4477 65.0005 69C65.0005 69.5523 64.5528 70 64.0005 70V68ZM16.0005 36V65H14.0005V36H16.0005ZM19.0005 68H24.0005V70H19.0005V68ZM25.0005 69V79H23.0005V69H25.0005ZM23.3108 78.2759L33.8108 68.2759L35.1901 69.7241L24.6901 79.7241L23.3108 78.2759ZM23.0005 33H19.0005V31H23.0005V33ZM34.5005 68H64.0005V70H34.5005V68ZM16.0005 65C16.0005 66.6569 17.3436 68 19.0005 68V70C16.2391 70 14.0005 67.7614 14.0005 65H16.0005ZM14.0005 36C14.0005 33.2386 16.2391 31 19.0005 31V33C17.3436 33 16.0005 34.3431 16.0005 36H14.0005Z" fill="#272727"/>
</svg>
