<svg width="100" height="100" viewBox="0 0 100 100" fill="none" xmlns="http://www.w3.org/2000/svg">
<path d="M35.2127 49.5596C35.9508 48.0895 38.0492 48.0895 38.7873 49.5596L43.6381 59.2201C43.9321 59.8056 44.4941 60.21 45.1427 60.3026L55.9317 61.8435C57.5829 62.0793 58.2369 64.1137 57.0326 65.2676L49.2699 72.7048C48.7887 73.1659 48.5687 73.8363 48.6833 74.4928L50.5218 85.0288C50.8061 86.658 49.1027 87.9086 47.6334 87.1494L37.9181 82.1292C37.3422 81.8316 36.6578 81.8316 36.0819 82.1292L26.3666 87.1494C24.8973 87.9086 23.1939 86.658 23.4782 85.0288L25.3167 74.4928C25.4313 73.8363 25.2113 73.1659 24.7301 72.7048L16.9674 65.2676C15.7631 64.1137 16.4171 62.0793 18.0683 61.8435L28.8573 60.3026C29.5059 60.21 30.0679 59.8056 30.3619 59.2201L35.2127 49.5596Z" stroke="#272727" stroke-width="2.5"/>
<path d="M29.4675 59.9691V59.9691C29.4878 59.8503 29.4484 59.7291 29.3621 59.6449L11.9013 42.6219C10.7144 41.4648 11.3694 39.449 13.0098 39.2106L36.2897 35.8272C36.9412 35.7326 37.5043 35.3234 37.7956 34.733L48.2065 13.6347C48.94 12.1481 51.0599 12.1481 51.7935 13.6347L62.2044 34.733C62.4957 35.3234 63.0588 35.7326 63.7103 35.8272L86.9902 39.2106C88.6306 39.449 89.2856 41.4648 88.0987 42.6219L71.2528 59.0454C70.7815 59.5049 70.5664 60.1668 70.6777 60.8155L74.6544 84.0057C74.9346 85.6395 73.2196 86.8854 71.7524 86.1139L50.91 75.1545C50.3403 74.855 49.6597 74.855 49.09 75.1545V75.1545" stroke="#272727" stroke-width="1.5"/>
<path d="M71.9134 24.8232L50.9929 50.7501M71.9134 24.8232L64.528 25.4498M71.9134 24.8232L72.8617 32.1742M50.9929 50.7501L50.0446 43.3992M50.9929 50.7501L58.3783 50.1236" stroke="#272727" stroke-width="2.5" stroke-linecap="round" stroke-linejoin="round"/>
</svg>
