<svg width="100" height="100" viewBox="0 0 100 100" fill="none" xmlns="http://www.w3.org/2000/svg">
<path d="M85.4658 52.4968L80.0607 56.5419" stroke="#272727"/>
<path d="M83.4082 50.2936L78.003 54.3387" stroke="#272727"/>
<path d="M64.5123 30.3135L64.6882 29.8473C64.5387 29.793 64.3717 29.812 64.238 29.8984L64.5123 30.3135ZM72.9386 32.8409L64.6882 29.8473L64.3364 30.7797L72.5868 33.7733L72.9386 32.8409ZM64.238 29.8984L62.1745 31.2318L62.7231 32.0618L64.7865 30.7285L64.238 29.8984Z" fill="#272727"/>
<ellipse rx="1.02312" ry="1.02312" transform="matrix(-0.312802 -0.949818 -0.945202 0.326485 78.6685 48.8847)" fill="#272727"/>
<path d="M37.3773 48.4608L16.2021 60.9981C12.5466 63.1625 10.6114 67.3745 11.3246 71.6143C12.2376 77.0417 17.1698 80.8839 22.6042 80.401L60.4222 77.0409C65.2704 76.6101 68.8394 72.3626 68.4622 67.4722L68.4154 66.8646M37.3773 48.4608C38.3113 49.5881 39.473 50.5756 40.86 51.3562L43.659 52.9315M37.3773 48.4608C32.8509 42.9978 33.6698 34.2503 40.1025 29.8441L52.8124 21.1382C56.8591 18.3664 62.322 19.3334 65.1192 23.3167L86.9381 54.388C90.0735 58.8529 89.2122 65.0454 84.9684 68.5498C81.6532 71.2873 77.0379 71.7174 73.3358 69.6338L68.4154 66.8646M44.1195 44.4689L48.2689 42.0121C56.2748 37.272 66.5544 42.7339 67.2776 52.1122L67.759 58.3536M44.1195 44.4689C44.6278 45.1776 45.3001 45.7941 46.1333 46.26L50.6724 48.7984M44.1195 44.4689C42.1959 41.7865 42.6223 37.783 45.5668 35.6186L55.3325 28.4404C56.9443 27.2556 59.1886 27.6058 60.34 29.2217L81.102 58.3603C82.1593 59.8442 81.8486 61.9204 80.4 63.0511C79.3262 63.8893 77.8677 64.0066 76.6926 63.3495L67.759 58.3536M43.659 52.9315L19.9669 67.0465C18.8102 67.7356 18.1826 69.0574 18.3715 70.4064C18.6264 72.2263 20.2691 73.5335 22.0828 73.3597L57.6987 69.9486C59.6738 69.7594 61.0992 67.9909 60.879 66.0026L60.48 62.3985M43.659 52.9315L60.48 62.3985M50.0464 49.1261C50.2522 49.0035 50.4611 48.8944 50.6724 48.7984M50.6724 48.7984L59.5186 53.7454M50.6724 48.7984C54.4275 47.0921 58.9151 49.5236 59.5186 53.7454M60.48 62.3985L59.5454 53.9563C59.5375 53.8855 59.5286 53.8152 59.5186 53.7454M67.759 58.3536L68.4154 66.8646" stroke="#272727" stroke-width="2.5"/>
<path d="M24.9776 80.0714L24.177 73.3679" stroke="#272727"/>
<path d="M27.9146 79.3915L27.114 72.6879" stroke="#272727"/>
<path d="M54.6658 73.0173L54.9816 73.4027C55.1033 73.3004 55.1703 73.1463 55.1624 72.9873L54.6658 73.0173ZM48.2638 79.051L54.9816 73.4027L54.35 72.6319L47.6322 78.2801L48.2638 79.051ZM55.1624 72.9873L55.0394 70.5336L54.0463 70.5936L54.1693 73.0473L55.1624 72.9873Z" fill="#272727"/>
<ellipse rx="1.02312" ry="1.02312" transform="matrix(0.978968 0.204015 0.189857 -0.981812 31.5044 75.9911)" fill="#272727"/>
</svg>
